<?xml version="1.0"?>
<svg id="Capa_2" data-name="Capa 2" xmlns="http://www.w3.org/2000/svg" xmlns:xlink="http://www.w3.org/1999/xlink" viewBox="0 0 218.56 154.74">
  <defs>
    
    <symbol id="Nuevo_símbolo_1" data-name="Nuevo símbolo 1" viewBox="0 0 218.56 154.74">
      <g>
        <g>
          <path class="cls-2" d="M124.64,31.37c-7.88-8.17-17.2-12.25-27.95-12.25s-20.14,3.6-27.92,10.81c-8.77,8.14-13.24,18.6-13.42,31.39L22.48,21.01H0v2.26c2.4,0,4.19.18,5.38.55,2.4.77,4.23,1.61,5.47,2.51,1.24.9,3.06,2.75,5.47,5.56v57.62c0,4.64-.45,7.62-1.34,8.92-1.47,2.12-3.97,3.18-7.51,3.18h-2.87v2.26h28.84v-2.26h-2.93c-3.22,0-5.6-.85-7.15-2.57-1.1-1.26-1.65-4.44-1.65-9.53v-51.02l43.33,52.93s0,0,0,0c.62.74,1.26,1.48,1.94,2.19,7.76,8.11,17.34,12.16,28.75,12.16s20.9-4.15,28.84-12.46c7.94-8.31,11.91-18.76,11.91-31.34s-3.94-22.41-11.82-30.58ZM114.86,92.32c-5.07,6.07-11.5,9.1-19.28,9.1-7.29,0-13.16-2.77-17.6-8.31-5.78-7.29-8.68-17.7-8.68-31.22s2.79-23.22,8.37-30.06c4.48-5.5,10.43-8.25,17.84-8.25,7.9,0,14.09,2.77,18.57,8.31,5.58,6.97,8.37,17.54,8.37,31.71,0,13.08-2.54,22.65-7.61,28.72Z"></path>
          <path class="cls-2" d="M205.86,98.08c-2.81-1.82-6.17-5.51-10.08-11.06l-17.11-24.18c6.97-1.57,12.11-4.27,15.43-8.08,3.32-3.81,4.98-8.31,4.98-13.49,0-4.85-1.46-9.02-4.37-12.53-2.91-3.5-4.89-4.39-9.07-5.7-4.18-1.31-8.37-2.09-21.91-2.09v2.32h3.88c5.34,0,10.4,2.67,13.64,5.97,3.24,3.29,4.08,7.57,4.08,12.84s-2.01,9.82-6.02,13.3c-3.61,3.14-8.81,4.85-15.58,5.17v3.21c3.18.11,6.12,1.78,7.88,4.48l10.96,16.84c13.48,18.79,9.76,18.79,34.29,18.79v-2.3c-4.52-.5-8.19-1.66-11-3.48Z"></path>
          <path class="cls-2" d="M134.67,23.27h2.93c1.96,0,3.83.49,5.62,1.47,1.26.73,2.1,1.61,2.51,2.63.53,1.34.79,4.11.79,8.31v53.52c0,4.97-.49,8.11-1.47,9.41-1.55,2-4.03,2.99-7.45,2.99h-2.93v2.26h23.58V21.01h-23.58v2.26Z"></path>
          <circle class="cls-2" cx="150.96" cy="7.29" r="7.29"></circle>
        </g>
        <text class="cls-1" transform="translate(3.99 146.31)"><tspan class="cls-6" x="0" y="0">{</tspan><tspan class="cls-8" x="11.9" y="0">Ba</tspan><tspan class="cls-3" x="51.48" y="0">r</tspan><tspan class="cls-7" x="66.53" y="0">be</tspan><tspan class="cls-5" x="104.3" y="0">r</tspan><tspan class="cls-7" x="119.31" y="0" xml:space="preserve"> Clu</tspan><tspan class="cls-4" x="183.15" y="0">b</tspan><tspan class="cls-7" x="202.33" y="0">}</tspan></text>
      </g>
    </symbol>
  </defs>
  <g id="Capa_1-2" data-name="Capa 1">
    <use width="218.56" height="154.74" xlink:href="#Nuevo_símbolo_1"></use>
  </g>
</svg>